<svg xmlns="http://www.w3.org/2000/svg" fill="none" viewBox="0 0 76 29">
  <path d="M8.21 23.18c-1.56 0-3.06-.25-4.5-.75-1.42-.5-2.52-1.16-3.3-1.98l.87-1.71c.76.76 1.77 1.38 3.03 1.86 1.26.46 2.56.69 3.9.69 1.88 0 3.29-.34 4.23-1.02.94-.7 1.41-1.6 1.41-2.7 0-.84-.26-1.51-.78-2.01-.5-.5-1.12-.88-1.86-1.14-.74-.28-1.77-.58-3.09-.9-1.58-.4-2.84-.78-3.78-1.14-.94-.38-1.75-.95-2.43-1.71-.66-.76-.99-1.79-.99-3.09 0-1.06.28-2.02.84-2.88.56-.88 1.42-1.58 2.58-2.1 1.16-.52 2.6-.78 4.32-.78 1.2 0 2.37.17 3.51.51 1.16.32 2.16.77 3 1.35l-.75 1.77a9.993 9.993 0 00-2.82-1.29c-1-.3-1.98-.45-2.94-.45-1.84 0-3.23.36-4.17 1.08-.92.7-1.38 1.61-1.38 2.73 0 .84.25 1.52.75 2.04.52.5 1.16.89 1.92 1.17.78.26 1.82.55 3.12.87 1.54.38 2.78.76 3.72 1.14.96.36 1.77.92 2.43 1.68.66.74.99 1.75.99 3.03 0 1.06-.29 2.03-.87 2.91-.56.86-1.43 1.55-2.61 2.07-1.18.5-2.63.75-4.35.75zM28.467 7.1c1.98 0 3.55.58 4.71 1.74 1.18 1.14 1.77 2.81 1.77 5.01V23h-2.13v-8.94c0-1.64-.41-2.89-1.23-3.75-.82-.86-1.99-1.29-3.51-1.29-1.7 0-3.05.51-4.05 1.53-.98 1-1.47 2.39-1.47 4.17V23h-2.13V.74h2.13v9.24c.58-.92 1.38-1.63 2.4-2.13s2.19-.75 3.51-.75zm18.771 16.05c-1.52 0-2.89-.34-4.11-1.02a7.657 7.657 0 01-2.88-2.88c-.7-1.22-1.05-2.6-1.05-4.14 0-1.54.35-2.92 1.05-4.14a7.44 7.44 0 012.88-2.85c1.22-.68 2.59-1.02 4.11-1.02 1.52 0 2.89.34 4.11 1.02 1.22.68 2.17 1.63 2.85 2.85.7 1.22 1.05 2.6 1.05 4.14 0 1.54-.35 2.92-1.05 4.14a7.44 7.44 0 01-2.85 2.88c-1.22.68-2.59 1.02-4.11 1.02zm0-1.89c1.12 0 2.12-.25 3-.75.9-.52 1.6-1.25 2.1-2.19s.75-2.01.75-3.21c0-1.2-.25-2.27-.75-3.21s-1.2-1.66-2.1-2.16c-.88-.52-1.88-.78-3-.78s-2.13.26-3.03.78c-.88.5-1.58 1.22-2.1 2.16-.5.94-.75 2.01-.75 3.21 0 1.2.25 2.27.75 3.21.52.94 1.22 1.67 2.1 2.19.9.5 1.91.75 3.03.75zM67.727 7.1c1.48 0 2.82.34 4.02 1.02 1.2.66 2.14 1.6 2.82 2.82.68 1.22 1.02 2.61 1.02 4.17 0 1.58-.34 2.98-1.02 4.2a7.29 7.29 0 01-2.82 2.85c-1.18.66-2.52.99-4.02.99-1.28 0-2.44-.26-3.48-.78-1.02-.54-1.86-1.32-2.52-2.34v8.79h-2.13V7.22h2.04v3.12a6.591 6.591 0 012.52-2.4c1.06-.56 2.25-.84 3.57-.84zm-.15 14.16c1.1 0 2.1-.25 3-.75.9-.52 1.6-1.25 2.1-2.19.52-.94.78-2.01.78-3.21 0-1.2-.26-2.26-.78-3.18-.5-.94-1.2-1.67-2.1-2.19-.9-.52-1.9-.78-3-.78-1.12 0-2.13.26-3.03.78-.88.52-1.58 1.25-2.1 2.19-.5.92-.75 1.98-.75 3.18 0 1.2.25 2.27.75 3.21.52.94 1.22 1.67 2.1 2.19.9.5 1.91.75 3.03.75z" fill="#000"/>
</svg>
